<svg width="30" height="39" viewBox="0 0 30 39" fill="none" xmlns="http://www.w3.org/2000/svg">
  <path fill-rule="evenodd" clip-rule="evenodd" d="M14.3812 0.00146484L14.3254 4.55428L18.2564 4.52335L15.3239 11.5617L15.4083 7.20444L11.3667 7.21209L14.3812 0.00146484Z" fill="#591312"/>
  <path fill-rule="evenodd" clip-rule="evenodd" d="M5.23767 4.55582L5.23974 4.61916C5.28301 5.9637 5.62093 7.21249 6.18614 8.3226C6.77409 9.45203 7.60883 10.4703 8.61289 11.2909C10.3137 12.6583 12.5026 13.4588 14.8114 13.4604C17.1206 13.4588 19.3094 12.6583 21.0102 11.2909C22.0143 10.4703 22.849 9.45203 23.4371 8.3226C24.0023 7.21249 24.3402 5.9637 24.3835 4.61916L24.3855 4.55582H29.2584L29.2548 4.62466C29.2167 5.34648 29.1286 6.06092 28.9897 6.76228C28.9609 6.92318 28.9288 7.08387 28.8925 7.24436C28.6523 8.3122 28.2723 9.34401 27.7721 10.3178C27.4134 11.0271 26.9885 11.709 26.4959 12.3564C25.964 13.055 25.3685 13.7003 24.7189 14.2862C23.3421 15.5374 21.7101 16.5325 19.9139 17.1682C19.3517 17.3672 18.741 17.57 18.1291 17.6918C17.8247 17.7612 17.5174 17.8213 17.2072 17.8721V27.3181H12.4159V17.8721C12.1057 17.8213 11.7982 17.7612 11.494 17.6918C10.8821 17.57 10.2712 17.3672 9.70916 17.1682C7.91297 16.5325 6.28089 15.5374 4.90407 14.2862C4.25446 13.7003 3.65897 13.055 3.12708 12.3564C2.63446 11.709 2.20956 11.0271 1.85085 10.3178C1.35066 9.34401 0.970703 8.3122 0.730469 7.24436C0.694219 7.08387 0.662109 6.92318 0.633281 6.76228C0.494375 6.06092 0.40625 5.34648 0.368203 4.62466L0.364648 4.55582H5.23767ZM0.364648 26.9364V15.7296C0.556484 15.9286 0.753203 16.1239 0.954297 16.3151C0.954297 16.3151 2.06367 17.3255 2.67246 17.7683C3.37012 18.2755 5.14004 19.3588 5.14004 19.3588L5.19801 24.7492C5.28918 24.8446 5.37914 24.9405 5.46762 25.0367C6.59953 26.2529 7.62926 27.567 8.46172 28.9867C8.61789 29.2531 8.76152 29.5345 8.90176 29.8196C9.02691 30.0428 9.13266 30.2751 9.23836 30.5076C9.39336 30.8192 9.55402 31.1246 9.73246 31.409C10.8908 33.2539 12.8508 34.1814 14.8114 34.1903C16.7721 34.1814 18.7324 33.2539 19.8905 31.409C20.0691 31.1246 20.2295 30.8192 20.3847 30.5076C20.4904 30.2751 20.5962 30.0428 20.7213 29.8196C20.8617 29.5345 21.0052 29.2531 21.1614 28.9867C21.9939 27.567 23.0234 26.2529 24.1555 25.0367C24.2438 24.9405 24.3338 24.8446 24.425 24.7492L24.483 19.3588C24.483 19.3588 26.253 18.2755 26.9506 17.7683C27.5594 17.3255 28.6687 16.3151 28.6687 16.3151C28.8698 16.1239 29.0665 15.9286 29.2584 15.7296V26.9364C27.669 27.9708 26.3729 29.6219 25.425 31.2241C24.872 32.1589 24.4734 33.1716 23.8633 34.0804C23.0112 35.35 21.9299 36.363 20.7131 37.1183C18.9413 38.2262 16.877 38.7776 14.8114 38.7757C12.7459 38.7776 10.6818 38.2262 8.90977 37.1183C7.69316 36.363 6.61187 35.35 5.75957 34.0804C5.14969 33.1716 4.75109 32.1589 4.19812 31.2241C3.25023 29.6219 1.95414 27.9708 0.364648 26.9364Z" fill="#591312"/>
</svg>