<svg width="163" height="39" viewBox="0 0 163 39" fill="none" xmlns="http://www.w3.org/2000/svg">
<g clip-path="url(#clip0_66_129)">
<mask id="mask0_66_129" style="mask-type:luminance" maskUnits="userSpaceOnUse" x="-1" y="0" width="164" height="39">
<path d="M162.987 0.000488281H-0.0012207V38.9721H162.987V0.000488281Z" fill="white"/>
</mask>
<g mask="url(#mask0_66_129)">
<path fill-rule="evenodd" clip-rule="evenodd" d="M81.2377 4.55582L81.2397 4.61916C81.283 5.9637 81.6209 7.21249 82.1861 8.3226C82.7741 9.45203 83.6088 10.4703 84.6129 11.2909C86.3137 12.6583 88.5026 13.4588 90.8114 13.4604C93.1206 13.4588 95.3094 12.6583 97.0102 11.2909C98.0143 10.4703 98.849 9.45203 99.4371 8.3226C100.002 7.21249 100.34 5.9637 100.383 4.61916L100.385 4.55582H105.258L105.255 4.62466C105.217 5.34648 105.129 6.06092 104.99 6.76228C104.961 6.92318 104.929 7.08387 104.893 7.24436C104.652 8.3122 104.272 9.34401 103.772 10.3178C103.414 11.0271 102.989 11.709 102.496 12.3564C101.964 13.055 101.369 13.7003 100.719 14.2862C99.3422 15.5374 97.7102 16.5325 95.9139 17.1682C95.3517 17.3672 94.741 17.57 94.1291 17.6918C93.8247 17.7612 93.5174 17.8213 93.2072 17.8721V27.3181H88.4159V17.8721C88.1057 17.8213 87.7982 17.7612 87.494 17.6918C86.8821 17.57 86.2712 17.3672 85.7092 17.1682C83.913 16.5325 82.2809 15.5374 80.9041 14.2862C80.2545 13.7003 79.659 13.055 79.1271 12.3564C78.6345 11.709 78.2096 11.0271 77.8509 10.3178C77.3507 9.34401 76.9707 8.3122 76.7305 7.24436C76.6942 7.08387 76.6621 6.92318 76.6333 6.76228C76.4944 6.06092 76.4063 5.34648 76.3682 4.62466L76.3646 4.55582H81.2377ZM76.3646 26.9364V15.7296C76.5565 15.9286 76.7532 16.1239 76.9543 16.3151C76.9543 16.3151 78.0636 17.3255 78.6725 17.7683C79.3702 18.2755 81.14 19.3588 81.14 19.3588L81.198 24.7492C81.2892 24.8446 81.3791 24.9405 81.4676 25.0367C82.5995 26.2529 83.6293 27.567 84.4617 28.9867C84.6179 29.2531 84.7615 29.5345 84.9018 29.8196C85.0269 30.0428 85.1327 30.2751 85.2384 30.5076C85.3934 30.8192 85.554 31.1246 85.7325 31.409C86.8908 33.2539 88.8508 34.1814 90.8114 34.1903C92.7721 34.1814 94.7324 33.2539 95.8905 31.409C96.0691 31.1246 96.2295 30.8192 96.3847 30.5076C96.4904 30.2751 96.5962 30.0428 96.7213 29.8196C96.8617 29.5345 97.0052 29.2531 97.1614 28.9867C97.9939 27.567 99.0234 26.2529 100.155 25.0367C100.244 24.9405 100.334 24.8446 100.425 24.7492L100.483 19.3588C100.483 19.3588 102.253 18.2755 102.951 17.7683C103.559 17.3255 104.669 16.3151 104.669 16.3151C104.87 16.1239 105.066 15.9286 105.258 15.7296V26.9364C103.669 27.9708 102.373 29.6219 101.425 31.2241C100.872 32.1589 100.473 33.1716 99.8633 34.0804C99.0112 35.35 97.9299 36.363 96.7131 37.1183C94.9413 38.2262 92.877 38.7776 90.8114 38.7757C88.7459 38.7776 86.6818 38.2262 84.9098 37.1183C83.6932 36.363 82.6119 35.35 81.7596 34.0804C81.1497 33.1716 80.7511 32.1589 80.1981 31.2241C79.2502 29.6219 77.9541 27.9708 76.3646 26.9364ZM90.3812 0.00146484L90.3254 4.55428L94.2564 4.52335L91.3239 11.5617L91.4083 7.20444L87.3667 7.21209L90.3812 0.00146484Z" fill="#591312"/>
<path d="M9.36207 32.4484C7.48292 32.4484 5.68207 32.2097 3.95948 31.7323C2.23695 31.2549 1.23735 30.6342 0.185913 29.8704L1.6441 25.9874C2.6508 26.6663 3.84204 27.2234 5.21788 27.6583C6.59371 28.0933 7.9863 28.3108 9.39565 28.3108C10.4695 28.3108 11.3363 28.21 11.9962 28.0085C12.6562 27.8068 13.1427 27.5257 13.4559 27.165C13.7692 26.8043 13.9257 26.3905 13.9257 25.9237C13.9257 25.3296 13.6796 24.8575 13.1875 24.5074C12.6954 24.1573 12.0466 23.8708 11.2412 23.648C10.4359 23.4252 9.54667 23.213 8.57348 23.0115C7.60035 22.8099 6.62723 22.5606 5.6541 22.2635C4.68097 21.9664 3.7917 21.5845 2.98635 21.1177C2.181 20.6509 1.52666 20.0355 1.02334 19.2717C0.519955 18.5078 0.268329 17.5319 0.268329 16.3436C0.268329 15.0705 0.631849 13.9087 1.35889 12.8584C2.08593 11.8081 3.1821 10.9699 4.64739 10.344C6.11269 9.71797 7.95272 9.40503 10.1674 9.40503C11.6439 9.40503 13.098 9.56955 14.5297 9.89845C15.9615 10.2272 17.2255 10.7207 18.3216 11.3783L16.6438 15.2933C15.5477 14.6991 14.4515 14.2588 13.3553 13.9723C12.2591 13.6859 11.1853 13.5428 10.1338 13.5428C9.0824 13.5428 8.22117 13.6594 7.55001 13.8929C6.87892 14.1261 6.39797 14.4286 6.10715 14.7998C5.81627 15.1713 5.67086 15.6008 5.67086 16.089C5.67086 16.6618 5.91694 17.1232 6.40911 17.4735C6.90128 17.8236 7.55001 18.1047 8.35536 18.3169C9.16072 18.529 10.05 18.7412 11.0231 18.9534C11.9962 19.1656 12.9694 19.4096 13.9425 19.6854C14.9157 19.9613 15.8049 20.3326 16.6102 20.7994C17.4156 21.2662 18.0699 21.8816 18.5733 22.6455C19.0766 23.4093 19.3283 24.3747 19.3283 25.5418C19.3283 26.7937 18.9592 27.9395 18.2209 28.9792C17.4827 30.0189 16.381 30.857 14.9157 31.4936C13.4503 32.1302 11.5991 32.4484 9.36207 32.4484Z" fill="#591312"/>
<path d="M9.36207 32.4484C7.48292 32.4484 5.68207 32.2097 3.95948 31.7323C2.23695 31.2549 1.23735 30.6342 0.185913 29.8704L1.6441 25.9874C2.6508 26.6663 3.84204 27.2234 5.21788 27.6583C6.59371 28.0933 7.9863 28.3108 9.39565 28.3108C10.4695 28.3108 11.3363 28.21 11.9962 28.0085C12.6562 27.8068 13.1427 27.5257 13.4559 27.165C13.7692 26.8043 13.9257 26.3905 13.9257 25.9237C13.9257 25.3296 13.6796 24.8575 13.1875 24.5074C12.6954 24.1573 12.0466 23.8708 11.2412 23.648C10.4359 23.4252 9.54667 23.213 8.57348 23.0115C7.60035 22.8099 6.62723 22.5606 5.6541 22.2635C4.68097 21.9664 3.7917 21.5845 2.98635 21.1177C2.181 20.6509 1.52666 20.0355 1.02334 19.2717C0.519955 18.5078 0.268329 17.5319 0.268329 16.3436C0.268329 15.0705 0.631849 13.9087 1.35889 12.8584C2.08593 11.8081 3.1821 10.9699 4.64739 10.344C6.11269 9.71797 7.95272 9.40503 10.1674 9.40503C11.6439 9.40503 13.098 9.56955 14.5297 9.89845C15.9615 10.2272 17.2255 10.7207 18.3216 11.3783L16.6438 15.2933C15.5477 14.6991 14.4515 14.2588 13.3553 13.9723C12.2591 13.6859 11.1853 13.5428 10.1338 13.5428C9.0824 13.5428 8.22117 13.6594 7.55001 13.8929C6.87892 14.1261 6.39797 14.4286 6.10715 14.7998C5.81627 15.1713 5.67086 15.6008 5.67086 16.089C5.67086 16.6618 5.91694 17.1232 6.40911 17.4735C6.90128 17.8236 7.55001 18.1047 8.35536 18.3169C9.16072 18.529 10.05 18.7412 11.0231 18.9534C11.9962 19.1656 12.9694 19.4096 13.9425 19.6854C14.9157 19.9613 15.8049 20.3326 16.6102 20.7994C17.4156 21.2662 18.0699 21.8816 18.5733 22.6455C19.0766 23.4093 19.3283 24.3747 19.3283 25.5418C19.3283 26.7937 18.9592 27.9395 18.2209 28.9792C17.4827 30.0189 16.381 30.857 14.9157 31.4936C13.4503 32.1302 11.5991 32.4484 9.36207 32.4484Z" stroke="#1E1C1A" stroke-width="0.994142" stroke-miterlimit="10"/>
<path fill-rule="evenodd" clip-rule="evenodd" d="M52.4842 18.9161V32.4489H47.3837V9.40552H51.8803L60.6787 23.7139L69.3295 9.40552H73.7924L73.8596 32.4489H68.7591L68.7287 18.6182L61.8129 30.0129H59.3631L52.4842 18.9161Z" fill="#591312"/>
<path fill-rule="evenodd" clip-rule="evenodd" d="M113.035 26.0297V32.4489H107.599V9.40552H117.766C119.869 9.40552 121.681 9.74019 123.203 10.4096C124.724 11.079 125.898 12.0392 126.726 13.2901C127.554 14.541 127.968 16.0331 127.968 17.767C127.968 19.4787 127.554 20.9547 126.726 22.1946C125.898 23.4345 124.724 24.3837 123.203 25.0421C123.187 25.0487 123.172 25.0553 123.157 25.0619L128.404 32.4489H122.532L118.022 26.0281C117.938 26.0291 117.852 26.0297 117.766 26.0297H113.035ZM113.035 21.7831H117.465C119.142 21.7831 120.395 21.4265 121.223 20.7132C122.051 20 122.464 19.0179 122.464 17.767C122.464 16.4941 122.051 15.5064 121.223 14.8042C120.395 14.102 119.142 13.7509 117.465 13.7509H113.035V21.7831Z" fill="#591312"/>
<path fill-rule="evenodd" clip-rule="evenodd" d="M137.331 27.511L135.238 32.4489H129.667L140.137 9.40552H145.506L156.009 32.4489H150.305L148.22 27.511H137.331ZM146.51 23.462L142.786 14.643L139.048 23.462H146.51Z" fill="#591312"/>
<path d="M162.987 9.40552H157.551V32.4489H162.987V9.40552Z" fill="#591312"/>
<path fill-rule="evenodd" clip-rule="evenodd" d="M26.992 27.511L24.8987 32.4489H19.3284L29.7981 9.40552H35.1671L45.6701 32.4489H39.9656L37.8806 27.511H26.992ZM36.1707 23.462L32.4469 14.643L28.7084 23.462H36.1707Z" fill="#591312"/>
</g>
</g>
<defs>
<clipPath id="clip0_66_129">
<rect width="163" height="39" fill="white"/>
</clipPath>
</defs>
</svg>
